<?xml version="1.0" encoding="UTF-8"?> <!-- Creator: CorelDRAW 2018 (64 Bit) --> <svg xmlns="http://www.w3.org/2000/svg" xmlns:xlink="http://www.w3.org/1999/xlink" xml:space="preserve" width="10.3375mm" height="1.6815mm" version="1.1" style="shape-rendering:geometricPrecision; text-rendering:geometricPrecision; image-rendering:optimizeQuality; fill-rule:evenodd; clip-rule:evenodd" viewBox="0 0 206.12 33.53"> <defs> <style type="text/css"> <![CDATA[ .fil0 {fill:#FFCC29} ]]> </style> </defs> <g id="Camada_x0020_1"> <metadata id="CorelCorpID_0Corel-Layer"></metadata> <polygon class="fil0" points="17.63,0 22.91,11.26 35.25,12.81 26.18,21.31 28.52,33.53 17.63,27.53 6.73,33.53 9.07,21.31 -0,12.81 12.34,11.26 "></polygon> <polygon class="fil0" points="60.34,0 65.63,11.26 77.97,12.81 68.9,21.31 71.24,33.53 60.34,27.53 49.45,33.53 51.79,21.31 42.72,12.81 55.06,11.26 "></polygon> <polygon class="fil0" points="103.06,0 108.35,11.26 120.69,12.81 111.62,21.31 113.96,33.53 103.06,27.53 92.17,33.53 94.51,21.31 85.43,12.81 97.77,11.26 "></polygon> <polygon class="fil0" points="145.78,0 151.07,11.26 163.41,12.81 154.34,21.31 156.67,33.53 145.78,27.53 134.89,33.53 137.22,21.31 128.15,12.81 140.49,11.26 "></polygon> <polygon class="fil0" points="188.5,0 193.79,11.26 206.12,12.81 197.05,21.31 199.39,33.53 188.5,27.53 177.6,33.53 179.94,21.31 170.87,12.81 183.21,11.26 "></polygon> </g> </svg> 