<?xml version="1.0" encoding="utf-8"?>
<!-- Generator: Adobe Illustrator 27.0.0, SVG Export Plug-In . SVG Version: 6.00 Build 0)  -->
<svg version="1.1" id="Layer_1" xmlns="http://www.w3.org/2000/svg" xmlns:xlink="http://www.w3.org/1999/xlink" x="0px" y="0px"
	 viewBox="0 0 235.96 123.51" enable-background="new 0 0 235.96 123.51" xml:space="preserve">
<g>
	<g>
		<g>
			<polygon fill="#F15B27" points="20.25,18.37 23.15,18.37 16.23,0.21 13.33,0.21 			"/>
			<polygon fill="#F15B27" points="6.31,18.37 3.4,18.37 10.33,0.21 13.23,0.21 			"/>
		</g>
		<polygon fill="#F15B27" points="53.84,18.34 56.75,18.34 52.96,8.28 50.06,8.28 		"/>
		
			<rect x="30.19" y="-5.42" transform="matrix(-1.836970e-16 1 -1 -1.836970e-16 32.8704 -30.186)" fill="#F15B27" width="2.68" height="13.53"/>
		
			<rect x="30.2" transform="matrix(-1 -1.224647e-16 1.224647e-16 -1 63.0564 18.4267)" fill="#F15B27" width="2.65" height="18.43"/>
		
			<rect x="97.19" y="-0.51" transform="matrix(-0.7071 0.7071 -0.7071 -0.7071 171.3288 -62.0833)" fill="#F15B27" width="2.66" height="9.9"/>
		
			<rect x="102.35" y="-0.51" transform="matrix(-0.7071 -0.7071 0.7071 -0.7071 173.8599 80.8986)" fill="#F15B27" width="2.66" height="9.9"/>
		<rect x="43.37" y="0.18" fill="#F15B27" width="2.58" height="18.16"/>
		<path fill="#F15B27" d="M52.08,2.5c1.17,0,2.13,0.96,2.13,2.13v0.46c0,1.24-1.01,2.25-2.25,2.25h-6.27V2.5H52.08 M52.08,0.18
			h-8.72v9.49h8.6c2.53,0,4.57-2.05,4.57-4.57V4.63C56.54,2.17,54.54,0.18,52.08,0.18L52.08,0.18z"/>
		<g>
			<path fill="#F15B27" d="M85.19,11.83c0,2.55-2.07,4.62-4.62,4.62h-1.5c-2.64,0-4.8-2.15-4.8-4.8v-1.49l-0.02-1.89V0h-1.87v11.65
				c0,3.69,2.99,6.68,6.68,6.68h1.5c3.59,0,6.51-2.91,6.51-6.51V0h-1.85v8.28"/>
			<path fill="#F15B27" d="M84.38,11.61c0,2.27-1.77,4.12-3.94,4.12h-1.28c-2.26,0-4.09-1.92-4.09-4.28v-1.33l-0.01-1.68V0h-1.6
				v11.45c0,3.29,2.55,5.96,5.7,5.96h1.28c3.07,0,5.55-2.6,5.55-5.8V0h-1.58v8.44"/>
		</g>
		
			<rect x="62.77" transform="matrix(-1 -1.224647e-16 1.224647e-16 -1 128.1975 18.4267)" fill="#F15B27" width="2.65" height="18.43"/>
		
			<rect x="93.31" transform="matrix(-1 -1.224647e-16 1.224647e-16 -1 189.2741 18.4267)" fill="#F15B27" width="2.65" height="18.43"/>
		
			<rect x="106.27" transform="matrix(-1 -1.224647e-16 1.224647e-16 -1 215.1947 18.4267)" fill="#F15B27" width="2.65" height="18.43"/>
	</g>
	<g>
		<path fill="#F15B27" d="M28.31,47.1c-2.74-2.58-5.87-3.44-9.54-3.44c-4.54,0-7.04,1.41-7.04,3.83c0,2.5,2.27,3.91,7.2,4.22
			c7.27,0.47,16.5,2.11,16.5,12.36c0,6.8-5.55,12.67-16.58,12.67c-6.1,0-12.2-1.02-17.83-6.88l4.69-6.81c2.74,3.05,9,5.32,13.3,5.4
			c3.6,0.08,6.96-1.8,6.96-4.62c0-2.66-2.19-3.75-7.67-4.07C11.03,59.22,2.35,56.56,2.35,47.8c0-8.92,9.23-12.04,16.27-12.04
			c6.02,0,10.56,1.17,15.02,5.08L28.31,47.1z"/>
		<path fill="#F15B27" d="M50.29,25.98v10.95h10.64v8.21H50.21V61.8c0,3.68,2.03,5.47,5.01,5.47c1.49,0,3.21-0.47,4.61-1.17
			l2.66,8.13c-2.74,1.09-5.01,1.56-7.9,1.64c-8.37,0.31-13.84-4.46-13.84-14.08V45.14h-7.2v-8.21h7.2v-9.93L50.29,25.98z"/>
		<path fill="#F15B27" d="M73.13,36.85v20.18c0,5.87,3.21,10.33,9.31,10.33c5.87,0,9.85-4.93,9.85-10.79V36.85h9.46v38.64h-8.53
			l-0.63-5.24c-3.99,3.91-7.67,5.79-13.06,5.79c-9.23,0-15.96-6.96-15.96-18.93V36.85H73.13z"/>
		<path fill="#F15B27" d="M145.55,20.74v54.67h-8.92l-0.63-5.32c-2.97,4.61-7.74,6.18-12.44,6.18c-11.34,0-19.87-7.51-19.87-20.18
			c0-13.3,8.37-20.18,19.63-20.18c4.07,0,10.4,2.19,12.67,6.18V20.74H145.55z M113.25,56.09c0,6.73,4.85,11.34,10.95,11.34
			c6.02,0,11.19-4.38,11.19-11.34c0-6.73-5.16-11.26-11.19-11.26C118.1,44.83,113.25,49.13,113.25,56.09z"/>
		<path fill="#F15B27" d="M159.55,25.98c0,7.43-11.26,7.43-11.26,0S159.55,18.55,159.55,25.98z M149.15,36.69v38.72h9.54V36.69
			H149.15z"/>
		<path fill="#F15B27" d="M201.79,56.17c0,11.11-7.59,20.1-20.1,20.1s-20.02-9-20.02-20.1c0-11.03,7.67-20.1,19.94-20.1
			C193.89,36.07,201.79,45.14,201.79,56.17z M171.2,56.17c0,5.87,3.52,11.34,10.48,11.34c6.96,0,10.48-5.48,10.48-11.34
			c0-5.79-4.07-11.42-10.48-11.42C174.8,44.75,171.2,50.38,171.2,56.17z"/>
		<path fill="#F15B27" d="M228.84,47.1c-2.74-2.58-5.87-3.44-9.54-3.44c-4.54,0-7.04,1.41-7.04,3.83c0,2.5,2.27,3.91,7.2,4.22
			c7.27,0.47,16.5,2.11,16.5,12.36c0,6.8-5.55,12.67-16.58,12.67c-6.1,0-12.2-1.02-17.83-6.88l4.69-6.81c2.74,3.05,9,5.32,13.3,5.4
			c3.6,0.08,6.96-1.8,6.96-4.62c0-2.66-2.19-3.75-7.67-4.07c-7.27-0.55-15.96-3.21-15.96-11.97c0-8.92,9.23-12.04,16.27-12.04
			c6.02,0,10.56,1.17,15.02,5.08L228.84,47.1z"/>
	</g>
	<g>
		<g>
			<path fill="#F15B27" d="M119.49,110.66c-0.38,0.89-0.87,1.65-1.49,2.26c-0.62,0.62-1.32,1.09-2.12,1.42
				c-0.79,0.33-1.61,0.5-2.45,0.5c-0.64,0-1.23-0.08-1.77-0.24c-0.54-0.16-1.02-0.38-1.45-0.64c-0.43-0.27-0.82-0.58-1.17-0.94
				c-0.35-0.36-0.66-0.73-0.92-1.12v2.65h-2.06V94.99h2.06v8.49c0.29-0.41,0.6-0.8,0.95-1.18c0.35-0.38,0.74-0.7,1.17-0.98
				c0.43-0.28,0.91-0.5,1.43-0.67c0.53-0.17,1.11-0.25,1.75-0.25c0.82,0,1.63,0.16,2.42,0.48c0.79,0.32,1.5,0.79,2.13,1.41
				s1.12,1.37,1.5,2.26s0.56,1.91,0.56,3.05S119.87,109.76,119.49,110.66z M117.55,105.42c-0.26-0.66-0.61-1.22-1.06-1.69
				s-0.96-0.83-1.55-1.08c-0.59-0.25-1.21-0.37-1.87-0.37c-0.64,0-1.26,0.13-1.86,0.39c-0.6,0.26-1.13,0.62-1.61,1.08
				c-0.47,0.46-0.85,1.02-1.12,1.68c-0.28,0.66-0.42,1.39-0.42,2.18c0,0.8,0.14,1.53,0.42,2.2c0.28,0.67,0.65,1.23,1.12,1.69
				c0.47,0.46,1.01,0.82,1.61,1.08c0.6,0.26,1.22,0.39,1.86,0.39c0.66,0,1.29-0.12,1.89-0.36c0.6-0.24,1.12-0.59,1.55-1.04
				c0.44-0.45,0.79-1.01,1.04-1.68c0.26-0.67,0.39-1.42,0.39-2.25C117.94,106.81,117.81,106.07,117.55,105.42z"/>
			<path fill="#F15B27" d="M129.4,114.99c-0.59,1.43-1.25,2.44-1.97,3.03c-0.72,0.59-1.6,0.88-2.64,0.88
				c-0.57,0-1.09-0.06-1.55-0.17c-0.46-0.12-0.93-0.29-1.39-0.52l0.7-1.63c0.34,0.18,0.67,0.31,1,0.39
				c0.33,0.08,0.72,0.12,1.17,0.12c0.62,0,1.15-0.19,1.58-0.56c0.43-0.38,0.85-1.05,1.26-2.04l-6.29-13.79h2.28l5.04,11.54
				l4.45-11.54h2.2L129.4,114.99z"/>
		</g>
		<g>
			<g>
				<path fill="#F15B27" d="M144.11,92.46c-0.28,0,9.53,13.11,9.53,13.11s-0.47,1.6-8.68,1.79v8.11c0,0,9.34-1.79,10.85-6.7
					c0,0,4.72,5.94,6.32,6.13h7.74l-8.58-11.32l-3.58-0.47c0,0,3.3-3.11,6.79-3.11c3.49,0,4.91,0,4.91,0v-7.55
					c0,0-4.81-0.28-7.64,2.26s-3.77,4.15-3.77,4.15s-3.3-6.24-6.79-6.42C147.69,92.27,144.11,92.46,144.11,92.46z"/>
				<path fill="#F15B27" d="M147.9,92.37c-2.15,0-3.8,0.09-3.8,0.09c-0.28,0,9.53,13.11,9.53,13.11s-0.47,1.6-8.68,1.79v8.11
					c0,0,9.34-1.79,10.85-6.7c0,0,4.72,5.94,6.32,6.13h7.74l-8.58-11.32l-3.58-0.47c0,0,3.3-3.11,6.79-3.11c3.49,0,4.91,0,4.91,0
					v-7.55c0,0-0.16-0.01-0.44-0.01c-1.25,0-4.89,0.19-7.2,2.27c-2.83,2.55-3.77,4.15-3.77,4.15s-3.3-6.24-6.79-6.42
					C150.06,92.39,148.92,92.37,147.9,92.37L147.9,92.37z"/>
			</g>
			<g>
				<path fill="#F15B27" d="M179.58,84.44l-7.83,7.83v15.84c0,0,0.48,7.07,6.8,7.36c6.32,0.28,7.17-1.79,7.17-1.79v-4.34
					c0,0-1.89,0.66-3.58,0.66c-1.7,0-2.74-2.74-2.64-5.38c0.09-2.64,0-5.85,0-5.85l-4.53-1.89h5.75l5-4.81h-5.94L179.58,84.44z"/>
				<path fill="#F15B27" d="M179.58,84.44l-7.83,7.83v15.84c0,0,0.48,7.07,6.8,7.36c0.4,0.02,0.78,0.03,1.14,0.03
					c5.28,0,6.02-1.82,6.02-1.82v-4.34c0,0-1.89,0.66-3.58,0.66s-2.74-2.74-2.64-5.38s0-5.85,0-5.85l-4.53-1.89h5.75l5-4.81h-5.94
					L179.58,84.44L179.58,84.44z"/>
			</g>
			<g>
				<path fill="#F15B27" d="M212.3,92.37v15.87c0,0-0.62,4.42,5.6,6.97c6.22,2.55,10.95-2.74,11.27-4.11c0,0,0.17,7.84-8.44,7.59
					v4.73c0,0,6.45,1,10.37-3.86c3.92-4.85,3.17-8.67,3.17-11.89c0.01-3.83,0-15.31,0-15.31h-8.03v16.36c0,0-0.12,2.74-2.61,2.68
					c-2.49-0.06-3.36-1.4-3.36-3.47c0-2.07,0-15.57,0-15.57H212.3z"/>
				<path fill="#F15B27" d="M234.27,92.37h-8.03v16.36c0,0-0.12,2.68-2.53,2.68c-0.03,0-0.05,0-0.08,0
					c-2.49-0.06-3.36-1.4-3.36-3.47c0-2.07,0-15.57,0-15.57h-7.97v15.87c0,0-0.62,4.42,5.6,6.97c1.18,0.48,2.31,0.69,3.36,0.69
					c4.5,0,7.65-3.68,7.91-4.79c0,0,0.16,7.6-8.05,7.6c-0.13,0-0.26,0-0.4-0.01v4.73c0,0,0.55,0.08,1.42,0.08
					c2.12,0,6.17-0.5,8.96-3.94c3.92-4.85,3.17-8.67,3.17-11.89C234.28,103.85,234.27,92.37,234.27,92.37L234.27,92.37z"/>
			</g>
			<g>
				<path fill="#F15B27" d="M204.95,92.84c-3.77-1.98-11.41-1.04-11.41-1.04v4.81c0,0,2.08-0.19,5.43,0.19
					c3.35,0.38,3.54,4.24,3.54,4.24s-2.74,0-6.98,0c-5.47,0-8.02,3.96-8.02,7.26c0,3.3,2.45,7.07,8.87,7.2
					c6.41,0.12,9.24-5.03,9.24-5.03c0,1.79-1.6,4.34-1.6,4.34h6.41c0,0-0.09-8.58,0-12.45S208.72,94.82,204.95,92.84z
					 M202.39,108.32c0,0-0.59,3.45-3.81,3.33c-3.21-0.12-3.75-2.97-3.69-4.46s1.37-3.65,4.94-3.58h2.56V108.32z"/>
				<path fill="#F15B27" d="M197.65,91.57c-2.3,0-4.12,0.22-4.12,0.22v4.81c0,0,0.52-0.05,1.46-0.05c0.94,0,2.29,0.05,3.97,0.24
					c3.35,0.38,3.54,4.24,3.54,4.24s-2.74,0-6.98,0c-5.47,0-8.02,3.96-8.02,7.26c0,3.3,2.45,7.07,8.87,7.2c0.07,0,0.15,0,0.22,0
					c6.26,0,9.02-5.03,9.02-5.03c0,1.79-1.6,4.34-1.6,4.34h6.41c0,0-0.09-8.58,0-12.45c0.09-3.87-1.7-7.55-5.47-9.53
					C203.02,91.82,200.07,91.57,197.65,91.57L197.65,91.57z M198.74,111.65c-0.05,0-0.11,0-0.16,0c-3.21-0.12-3.75-2.97-3.69-4.46
					c0.06-1.46,1.33-3.58,4.77-3.58c0.05,0,0.11,0,0.16,0h2.56v4.71C202.39,108.32,201.81,111.65,198.74,111.65L198.74,111.65z"/>
			</g>
		</g>
	</g>
</g>
</svg>
