<?xml version="1.0" encoding="UTF-8"?> <svg xmlns="http://www.w3.org/2000/svg" width="214.333" height="92.063" viewBox="0 0 214.333 92.063"><g transform="translate(-51.465 -49.956)"><path d="M1141.436,174.428v38.089a6.966,6.966,0,0,1-6.966,6.966h0a6.966,6.966,0,0,1-6.966-6.966V174.428h-19.127v34.9c0,11.616,7.975,20.087,21.469,20.087,10.076,0,16.766-5.677,18.817-12.865,0,16.078-10.119,20.232-21.158,20.232V247.4c27.18,0,33.059-16.074,33.059-31.576V174.428Z" transform="translate(-894.765 -105.376)" fill="#ef5729"></path><path d="M737.783,168.376v10.613c16.655-1.428,21.508,2.239,21.508,10.13h-17.68c-8.423,0-17.5,6.6-17.5,16.734s8.6,17.493,20.348,17.493c14.141,0,20.19-8.688,22.055-12.849a29.312,29.312,0,0,1-3.451,11.749h15.351V193.71C778.419,175.81,768.307,163.429,737.783,168.376Zm21.508,27.6v8.726a8.726,8.726,0,0,1-8.726,8.726h0a8.726,8.726,0,0,1-8.726-8.726h0a8.726,8.726,0,0,1,8.726-8.726Z" transform="translate(-569.455 -99.324)" fill="#ef5729"></path><path d="M507.413,110.438a7.583,7.583,0,0,1-7.92-7.642V84.223L486.6,79.665h16.438L513.65,69.052H499.462v-19.1l-19.1,19.1v35.777a19.223,19.223,0,0,0,19.089,19.194c9.7,0,14.195-4.16,14.195-4.16V109.249A16.419,16.419,0,0,1,507.413,110.438Z" transform="translate(-363.101 0)" fill="#ef5729"></path><path d="M92.808,200.2a21.353,21.353,0,0,0-10.281,1.164s8.154-8.918,29.528-8.918V174.428c-11.881,0-22.277,5.845-26.932,15.38l-6.775-9.161a15.342,15.342,0,0,0-12.335-6.219H51.465l23.5,31.776C70.239,208.3,63.1,210.282,53,210.282V228.3c11.881,0,22.277-5.845,26.932-15.38L86.7,222.08A15.342,15.342,0,0,0,99.04,228.3h14.548Z" transform="translate(0 -105.376)" fill="#ef5729"></path></g></svg> 